<svg width="45" height="45" viewBox="0 0 45 45" fill="none" xmlns="http://www.w3.org/2000/svg">
<circle cx="22.5" cy="22.5" r="22.5" fill="#60B3BE"/>
<path d="M28.96 29.912V32H16.888V30.368L23.728 23.768C24.56 22.968 25.12 22.28 25.408 21.704C25.696 21.112 25.84 20.52 25.84 19.928C25.84 19.048 25.528 18.368 24.904 17.888C24.296 17.392 23.416 17.144 22.264 17.144C20.408 17.144 18.976 17.752 17.968 18.968L16.336 17.552C16.992 16.752 17.848 16.128 18.904 15.68C19.976 15.232 21.168 15.008 22.48 15.008C24.24 15.008 25.64 15.432 26.68 16.28C27.72 17.112 28.24 18.248 28.24 19.688C28.24 20.584 28.048 21.432 27.664 22.232C27.28 23.032 26.552 23.944 25.48 24.968L20.344 29.912H28.96Z" fill="white"/>
</svg>
