<svg width="45" height="45" viewBox="0 0 45 45" fill="none" xmlns="http://www.w3.org/2000/svg">
<circle cx="22.5" cy="22.5" r="22.5" fill="#60B3BE"/>
<path d="M23.584 22.256C25.232 22.416 26.488 22.928 27.352 23.792C28.216 24.64 28.648 25.728 28.648 27.056C28.648 28.016 28.408 28.888 27.928 29.672C27.448 30.44 26.728 31.056 25.768 31.52C24.824 31.968 23.664 32.192 22.288 32.192C21.088 32.192 19.936 32.016 18.832 31.664C17.728 31.296 16.824 30.792 16.12 30.152L17.224 28.256C17.8 28.8 18.536 29.24 19.432 29.576C20.328 29.896 21.28 30.056 22.288 30.056C23.536 30.056 24.504 29.792 25.192 29.264C25.896 28.736 26.248 28.008 26.248 27.08C26.248 26.152 25.904 25.432 25.216 24.92C24.528 24.408 23.488 24.152 22.096 24.152H20.752V22.472L24.976 17.288H16.888V15.2H27.976V16.832L23.584 22.256Z" fill="white"/>
</svg>
