<svg width="45" height="45" viewBox="0 0 45 45" fill="none" xmlns="http://www.w3.org/2000/svg">
<circle cx="22.5" cy="22.5" r="22.5" fill="#60B3BE"/>
<path d="M21.952 21.896C24.352 21.896 26.112 22.352 27.232 23.264C28.368 24.16 28.936 25.392 28.936 26.96C28.936 27.952 28.696 28.848 28.216 29.648C27.752 30.432 27.04 31.056 26.08 31.52C25.136 31.968 23.968 32.192 22.576 32.192C21.392 32.192 20.248 32.016 19.144 31.664C18.04 31.296 17.128 30.792 16.408 30.152L17.512 28.256C18.088 28.8 18.824 29.24 19.72 29.576C20.616 29.896 21.56 30.056 22.552 30.056C23.816 30.056 24.792 29.792 25.48 29.264C26.184 28.72 26.536 27.984 26.536 27.056C26.536 26.048 26.152 25.288 25.384 24.776C24.616 24.248 23.304 23.984 21.448 23.984H17.632L18.52 15.2H28V17.288H20.536L20.08 21.896H21.952Z" fill="white"/>
</svg>
