<svg width="40" height="40" viewBox="0 0 40 40" fill="none" xmlns="http://www.w3.org/2000/svg">
<g clip-path="url(#clip0_332_367)">
<path d="M19.9904 3.64135C25.3378 3.64135 25.9703 3.64135 28.0786 3.75635C29.3416 3.77741 30.592 4.01066 31.7776 4.44633C32.6461 4.76698 33.432 5.27776 34.0776 5.9413C34.7496 6.57993 35.2618 7.36784 35.5726 8.24125C36.0269 9.42836 36.2607 10.6884 36.2625 11.9595C36.3584 14.0678 36.3775 14.7003 36.3775 20.0477C36.3775 25.3951 36.3775 26.0084 36.2625 28.1167C36.2607 29.3878 36.0269 30.6478 35.5726 31.8349C35.2618 32.7083 34.7496 33.4963 34.0776 34.1349C33.432 34.7984 32.6461 35.3092 31.7776 35.6299C30.592 36.0655 29.3416 36.2988 28.0786 36.3198C25.9703 36.4157 25.3378 36.4348 19.9904 36.4348C14.643 36.4348 14.0105 36.4348 11.9022 36.3198C10.6393 36.2988 9.38881 36.0655 8.20316 35.6299C7.33465 35.3092 6.54881 34.7984 5.90318 34.1349C5.23761 33.4909 4.72651 32.7046 4.40822 31.8349C3.95391 30.6478 3.72011 29.3878 3.71826 28.1167C3.62243 26.0084 3.60327 25.3759 3.60327 20.0477C3.60327 14.7195 3.60326 14.0678 3.71826 11.9595C3.72011 10.6884 3.95391 9.42836 4.40822 8.24125C4.72651 7.37156 5.23761 6.58525 5.90318 5.9413C6.54881 5.27776 7.33465 4.76698 8.20316 4.44633C9.38881 4.01066 10.6393 3.77741 11.9022 3.75635C14.0105 3.75635 14.643 3.64135 19.9904 3.64135ZM19.9904 0.0380859C14.5663 0.0380859 13.8764 0.0380813 11.7489 0.153079C10.0907 0.185544 8.45035 0.503242 6.89987 1.09224C5.57821 1.59367 4.37473 2.36347 3.36533 3.35308C2.35593 4.34269 1.56244 5.53065 1.03494 6.84212C0.462763 8.39662 0.151937 10.0351 0.114993 11.6912C0.0191616 13.8378 0 14.5086 0 19.9518C0 25.3951 -4.67669e-06 26.0659 0.114993 28.1933C0.151937 29.8494 0.462763 31.4879 1.03494 33.0424C1.54221 34.3783 2.33352 35.588 3.3541 36.5882C4.35013 37.6091 5.56151 38.3949 6.89987 38.8881C8.45035 39.4771 10.0907 39.7948 11.7489 39.8273C13.8764 39.9231 14.5663 39.9423 19.9904 39.9423C25.4145 39.9423 26.1044 39.9423 28.2319 39.8273C29.8961 39.7925 31.5424 39.4749 33.1001 38.8881C34.4316 38.3924 35.6362 37.6068 36.6267 36.5882C37.6473 35.588 38.4385 34.3783 38.9458 33.0424C39.518 31.4879 39.8289 29.8494 39.8658 28.1933C39.9616 26.0659 39.9808 25.3759 39.9808 19.9518C39.9808 14.5278 39.9808 13.8378 39.8658 11.6912C39.8289 10.0351 39.518 8.39662 38.9458 6.84212C38.4174 5.53429 37.6259 4.34901 36.6203 3.3599C35.6147 2.37078 34.4165 1.59893 33.1001 1.09224C31.5424 0.505464 29.8961 0.187877 28.2319 0.153079C26.1044 0.153079 25.4145 0.0380859 19.9904 0.0380859Z" fill="white"/>
<path d="M19.9904 9.73633C17.9586 9.73633 15.9724 10.3389 14.283 11.4677C12.5936 12.5965 11.2768 14.2009 10.4993 16.0781C9.72175 17.9553 9.51829 20.0208 9.91468 22.0136C10.3111 24.0064 11.2895 25.8369 12.7262 27.2737C14.1629 28.7104 15.9934 29.6888 17.9862 30.0852C19.979 30.4816 22.0446 30.2781 23.9218 29.5006C25.7989 28.723 27.4034 27.4063 28.5322 25.7169C29.661 24.0275 30.2635 22.0413 30.2635 20.0094C30.2635 18.6604 29.9978 17.3245 29.4816 16.0781C28.9653 14.8317 28.2086 13.6992 27.2546 12.7453C26.3007 11.7913 25.1682 11.0346 23.9218 10.5184C22.6754 10.0021 21.3395 9.73633 19.9904 9.73633ZM19.9904 26.6601C18.6704 26.6601 17.3801 26.2685 16.2829 25.5347C15.1856 24.801 14.3307 23.7582 13.8265 22.5383C13.3222 21.3184 13.1912 19.9763 13.4502 18.682C13.7091 17.3877 14.3462 16.1992 15.2809 15.2672C16.2156 14.3352 17.4059 13.7014 18.701 13.4463C19.9961 13.1911 21.3378 13.3259 22.5562 13.8337C23.7746 14.3414 24.8149 15.1993 25.5455 16.2987C26.2761 17.398 26.6641 18.6895 26.6603 20.0094C26.6603 20.8844 26.4876 21.7509 26.1522 22.559C25.8168 23.3672 25.3251 24.1012 24.7055 24.719C24.0859 25.3368 23.3506 25.8263 22.5414 26.1594C21.7323 26.4925 20.8654 26.6627 19.9904 26.6601Z" fill="white"/>
<path d="M33.062 9.3915C33.0582 9.86451 32.9145 10.3258 32.649 10.7173C32.3834 11.1087 32.008 11.4128 31.5699 11.5912C31.1318 11.7696 30.6507 11.8143 30.1872 11.7197C29.7237 11.6251 29.2987 11.3955 28.9655 11.0597C28.6324 10.7239 28.4061 10.2969 28.3152 9.83273C28.2243 9.36852 28.2728 8.8878 28.4547 8.45115C28.6366 8.01449 28.9437 7.64142 29.3372 7.37901C29.7308 7.11659 30.1932 6.97658 30.6663 6.97656C30.9825 6.97655 31.2956 7.03915 31.5875 7.16075C31.8794 7.28235 32.1444 7.46053 32.3671 7.68503C32.5898 7.90954 32.7659 8.17589 32.8852 8.46878C33.0044 8.76167 33.0646 9.07527 33.062 9.3915Z" fill="white"/>
</g>
<defs>
<clipPath id="clip0_332_367">
<rect width="40" height="40" fill="white"/>
</clipPath>
</defs>
</svg>
