<svg width="40" height="40" viewBox="0 0 40 40" fill="none" xmlns="http://www.w3.org/2000/svg">
<g clip-path="url(#clip0_332_371)">
<path d="M9.05683 13.3262H0.796875V39.9789H9.05683V13.3262Z" fill="white"/>
<path d="M4.88478 9.8274C5.86091 9.83571 6.81747 9.55398 7.63315 9.01799C8.44883 8.482 9.0868 7.71591 9.46612 6.81692C9.84545 5.91793 9.94902 4.92658 9.76369 3.96867C9.57835 3.01075 9.1125 2.12946 8.4252 1.43662C7.7379 0.743782 6.86017 0.270638 5.90337 0.0772211C4.94657 -0.116196 3.95383 -0.0211613 3.05116 0.350265C2.14849 0.721691 1.37658 1.35274 0.83336 2.16338C0.290139 2.97402 8.03463e-05 3.92769 4.49931e-05 4.90335C-0.00271398 5.54723 0.121437 6.18535 0.365424 6.78127C0.609411 7.3772 0.968436 7.91926 1.42202 8.3765C1.87561 8.83374 2.41487 9.19722 3.009 9.44617C3.60313 9.69511 4.24055 9.82466 4.88478 9.8274Z" fill="white"/>
<path d="M22.264 25.9819C22.264 22.2312 23.9831 20.0102 27.2955 20.0102C30.6079 20.0102 31.7818 22.1055 31.7818 25.9819V39.9788H40.1047V23.1113C40.1047 15.9662 36.0586 12.5089 30.3982 12.5089C28.7931 12.4844 27.2092 12.8771 25.8017 13.6484C24.3941 14.4198 23.2112 15.5433 22.3689 16.9091V13.3261H14.4443V39.9788H22.3689L22.264 25.9819Z" fill="white"/>
</g>
<defs>
<clipPath id="clip0_332_371">
<rect width="40" height="40" fill="white"/>
</clipPath>
</defs>
</svg>
