<svg width="40" height="31" viewBox="0 0 40 31" fill="none" xmlns="http://www.w3.org/2000/svg">
<path fill-rule="evenodd" clip-rule="evenodd" d="M37.8684 3.14428C38.4883 3.80905 38.9335 4.63533 39.1595 5.54056C40.2802 12.3667 40.2802 19.3481 39.1595 26.1743C38.9347 27.0802 38.4899 27.9071 37.8699 28.5721C37.2498 29.237 36.4763 29.7166 35.627 29.9627C32.5016 30.8574 20 30.8574 20 30.8574C20 30.8574 7.48525 30.8574 4.37298 29.9627C3.5219 29.7175 2.74632 29.2384 2.12401 28.5735C1.50171 27.9086 1.05454 27.0812 0.827328 26.1743C-0.275776 19.3465 -0.275776 12.3683 0.827328 5.54056C1.05695 4.63492 1.50493 3.80888 2.12686 3.14436C2.74879 2.47984 3.5231 1.99992 4.37298 1.75213C7.48525 0.857442 20 0.857422 20 0.857422C20 0.857422 32.5016 0.857442 35.627 1.75213C36.4757 1.99949 37.2486 2.4795 37.8684 3.14428ZM26.3691 15.8571L15.916 9.52443V22.1898L26.3691 15.8571Z" fill="white"/>
</svg>
