<svg width="13" height="17" viewBox="0 0 13 17" fill="none" xmlns="http://www.w3.org/2000/svg">
<path d="M12.96 14.912V17H0.888V15.368L7.728 8.768C8.56 7.968 9.12 7.28 9.408 6.704C9.696 6.112 9.84 5.52 9.84 4.928C9.84 4.048 9.528 3.368 8.904 2.888C8.296 2.392 7.416 2.144 6.264 2.144C4.408 2.144 2.976 2.752 1.968 3.968L0.336 2.552C0.992 1.752 1.848 1.128 2.904 0.68C3.976 0.232 5.168 0.0079999 6.48 0.0079999C8.24 0.0079999 9.64 0.432 10.68 1.28C11.72 2.112 12.24 3.248 12.24 4.688C12.24 5.584 12.048 6.432 11.664 7.232C11.28 8.032 10.552 8.944 9.48 9.968L4.344 14.912H12.96Z" fill="#60B3BE"/>
</svg>
