<svg width="13" height="18" viewBox="0 0 13 18" fill="none" xmlns="http://www.w3.org/2000/svg">
<path d="M7.584 7.256C9.232 7.416 10.488 7.928 11.352 8.792C12.216 9.64 12.648 10.728 12.648 12.056C12.648 13.016 12.408 13.888 11.928 14.672C11.448 15.44 10.728 16.056 9.768 16.52C8.824 16.968 7.664 17.192 6.288 17.192C5.088 17.192 3.936 17.016 2.832 16.664C1.728 16.296 0.824 15.792 0.12 15.152L1.224 13.256C1.8 13.8 2.536 14.24 3.432 14.576C4.328 14.896 5.28 15.056 6.288 15.056C7.536 15.056 8.504 14.792 9.192 14.264C9.896 13.736 10.248 13.008 10.248 12.08C10.248 11.152 9.904 10.432 9.216 9.92C8.528 9.408 7.488 9.152 6.096 9.152H4.752V7.472L8.976 2.288H0.888V0.199999H11.976V1.832L7.584 7.256Z" fill="#60B3BE"/>
</svg>
