<svg width="13" height="18" viewBox="0 0 13 18" fill="none" xmlns="http://www.w3.org/2000/svg">
<path d="M5.952 6.896C8.352 6.896 10.112 7.352 11.232 8.264C12.368 9.16 12.936 10.392 12.936 11.96C12.936 12.952 12.696 13.848 12.216 14.648C11.752 15.432 11.04 16.056 10.08 16.52C9.136 16.968 7.968 17.192 6.576 17.192C5.392 17.192 4.248 17.016 3.144 16.664C2.04 16.296 1.128 15.792 0.408 15.152L1.512 13.256C2.088 13.8 2.824 14.24 3.72 14.576C4.616 14.896 5.56 15.056 6.552 15.056C7.816 15.056 8.792 14.792 9.48 14.264C10.184 13.72 10.536 12.984 10.536 12.056C10.536 11.048 10.152 10.288 9.384 9.776C8.616 9.248 7.304 8.984 5.448 8.984H1.632L2.52 0.199999H12V2.288H4.536L4.08 6.896H5.952Z" fill="#60B3BE"/>
</svg>
