<svg width="30" height="30" viewBox="0 0 30 30" fill="none" xmlns="http://www.w3.org/2000/svg">
<circle cx="15" cy="15" r="15" fill="#43AEB6"/>
<g clip-path="url(#clip0_2607_4421)">
<path d="M22.9993 9.61801C22.9958 9.23234 22.8466 8.86259 22.5823 8.58421L21.4259 7.41639C20.8762 6.8612 19.9283 6.8612 19.3975 7.41639L18.4293 8.39276C17.3269 7.80018 16.0967 7.49113 14.8478 7.49297C10.6204 7.49297 7.19056 10.9581 7.19056 15.2273V17.5247L5.84326 16.1664C5.75024 16.0725 5.62409 16.0197 5.49255 16.0197C5.36101 16.0197 5.23486 16.0725 5.14185 16.1664C5.04884 16.2604 4.99658 16.3878 4.99658 16.5206C4.99658 16.6535 5.04884 16.7809 5.14185 16.8748L7.34221 19.0969C7.38913 19.1454 7.44515 19.1839 7.50701 19.2102C7.56886 19.2365 7.63529 19.25 7.7024 19.25C7.7695 19.25 7.83593 19.2365 7.89779 19.2102C7.95964 19.1839 8.01567 19.1454 8.06258 19.0969L10.2629 16.8748C10.356 16.7807 10.4081 16.6531 10.408 16.5201C10.4079 16.3872 10.3555 16.2597 10.2623 16.1658C10.1691 16.0718 10.0428 16.0191 9.91108 16.0193C9.77942 16.0194 9.65319 16.0723 9.56018 16.1664L8.21288 17.5247V15.2273C8.17497 11.5133 11.1702 8.48848 14.8478 8.48848C15.8323 8.48324 16.805 8.70542 17.6914 9.13803L13.4261 13.4455C13.113 13.7581 12.8733 14.1375 12.7246 14.5559L11.6441 17.485C11.59 17.6209 11.5773 17.7699 11.6074 17.9131C11.6376 18.0563 11.7093 18.1872 11.8134 18.2891C11.8824 18.361 11.9648 18.4183 12.0559 18.4577C12.147 18.4972 12.245 18.5179 12.3442 18.5188C12.4356 18.5182 12.5259 18.4986 12.6095 18.4614L15.51 17.3893C15.923 17.2365 16.2981 16.9948 16.6095 16.681L20.8748 12.3734C21.3011 13.2693 21.521 14.2511 21.518 15.2451C21.518 18.9591 18.5228 21.984 14.8451 21.984C13.4409 21.9906 12.0717 21.5409 10.94 20.7013C10.8865 20.6623 10.8259 20.6344 10.7616 20.6191C10.6974 20.6038 10.6308 20.6014 10.5657 20.612C10.5006 20.6227 10.4382 20.6462 10.382 20.6812C10.3259 20.7163 10.2772 20.7621 10.2386 20.8162C10.2 20.8702 10.1723 20.9314 10.1572 20.9963C10.142 21.0611 10.1396 21.1283 10.1502 21.1941C10.1607 21.2599 10.184 21.3229 10.2187 21.3796C10.2534 21.4363 10.2988 21.4855 10.3523 21.5245C11.658 22.4852 13.2323 23.002 14.8478 23C19.0752 23 22.5065 19.5348 22.5065 15.2656C22.5085 14.0039 22.2025 12.7611 21.6155 11.6473L22.5823 10.671C22.848 10.3633 22.9997 10.0009 22.9997 9.61801H22.9993ZM15.1511 16.4526L12.7422 17.3524L13.6332 14.9207C13.7108 14.7488 13.7999 14.5825 13.9 14.4229L15.6264 16.1664C15.5127 16.2813 15.3421 16.377 15.1525 16.4536L15.1511 16.4526ZM21.8809 9.92295L16.3833 15.4749L14.6014 13.6749L20.0989 8.12337C20.1846 8.0374 20.3004 7.98911 20.4212 7.98902C20.4811 7.98824 20.5406 7.99975 20.596 8.02284C20.6513 8.04593 20.7015 8.08013 20.7435 8.12337L21.8998 9.29118C21.9848 9.3776 22.0325 9.49448 22.0325 9.6163C22.0136 9.73187 21.9608 9.83904 21.8809 9.92398V9.92295Z" fill="white"/>
</g>
<defs>
<clipPath id="clip0_2607_4421">
<rect width="18" height="16" fill="white" transform="translate(5 7)"/>
</clipPath>
</defs>
</svg>
