<svg width="30" height="30" viewBox="0 0 30 30" fill="none" xmlns="http://www.w3.org/2000/svg">
<circle cx="15" cy="15" r="15" fill="#43AEB6"/>
<path d="M24.2835 11.9074L24.2836 11.9074C24.2875 11.8038 24.3336 11.7068 24.4103 11.6364C24.4869 11.5662 24.5881 11.5277 24.6926 11.5277C24.797 11.5277 24.8983 11.5662 24.9749 11.6364C25.0516 11.7068 25.0976 11.8038 25.1016 11.9074L25.1017 11.9112H25.1016V14.0475C25.1016 14.6906 24.9454 15.2253 24.6323 15.6343C24.3325 16.0258 23.896 16.2932 23.3378 16.4334V19.3243C23.3378 19.4022 23.3135 19.4778 23.2687 19.5417C23.2241 19.6053 23.1613 19.6542 23.0887 19.683C23.0884 19.6831 23.0882 19.6833 23.0879 19.6834L23.0511 19.5904C23.0139 19.6059 22.9737 19.6139 22.933 19.6139L24.2835 11.9074ZM24.2835 11.9074V11.9112M24.2835 11.9074V11.9112M22.5222 18.4197L20.0997 16.1816C20.0996 16.1814 20.0995 16.1813 20.0993 16.1812C20.0617 16.146 20.0174 16.1184 19.9691 16.0998C19.9208 16.0812 19.8693 16.0718 19.8175 16.0722H19.8178L22.5222 18.4197ZM22.5222 18.4197L22.5222 16.1201C22.5222 16.12 22.5222 16.1199 22.5222 16.1197V16.1197V18.4197ZM24.2835 11.9112V14.0483C24.2835 14.5596 24.1638 14.9429 23.9341 15.2155M24.2835 11.9112L23.9341 15.2155M23.9341 15.2155C23.7047 15.4878 23.3541 15.6631 22.8644 15.7355L23.9341 15.2155ZM15.384 7.67376H22.8843C23.4108 7.67376 23.756 7.77435 23.9711 7.97465C24.1845 8.1733 24.2912 8.49035 24.2912 8.97685V9.37591C24.2888 9.42849 24.2974 9.48093 24.3165 9.53008C24.336 9.58012 24.3658 9.62553 24.4038 9.66368C24.4419 9.70181 24.4874 9.7319 24.5375 9.75236C24.5876 9.77283 24.6414 9.78332 24.6956 9.78332C24.7498 9.78332 24.8036 9.77283 24.8537 9.75236C24.9038 9.7319 24.9493 9.70181 24.9874 9.66368C25.0255 9.62553 25.0553 9.58012 25.0747 9.53008C25.0938 9.48093 25.1024 9.42849 25.1 9.37591V8.97685C25.1 8.30312 24.917 7.77799 24.5383 7.42261C24.1607 7.06831 23.6052 6.89847 22.8933 6.89847H15.3933C14.6818 6.89847 13.9396 7.05555 13.3716 7.39166C12.8006 7.72949 12.4 8.2531 12.4 8.97685V14.0487C12.4 14.7411 12.7898 15.4404 13.3488 15.9631C13.9084 16.4863 14.6528 16.8471 15.3843 16.8471H19.6662L15.384 7.67376Z" fill="white" stroke="white" stroke-width="0.2"/>
<path d="M25.0994 10.6151C25.0994 10.5177 25.0501 10.4215 24.9816 10.3516C24.9119 10.2805 24.8113 10.2255 24.695 10.2255C24.5893 10.2255 24.487 10.2654 24.4108 10.3379C24.3345 10.4105 24.2906 10.5101 24.2906 10.6151V10.6846C24.2906 10.7819 24.3399 10.8782 24.4084 10.948C24.4781 11.0191 24.5787 11.0741 24.695 11.0741C24.8007 11.0741 24.903 11.0343 24.9792 10.9618C25.0555 10.8892 25.0994 10.7896 25.0994 10.6846V10.6151Z" fill="white" stroke="white" stroke-width="0.2"/>
<path d="M7.07031 23.1C7.16789 23.0997 7.26275 23.0657 7.33708 23.0032L7.33731 23.003L10.6706 20.1834H14.9521C16.2428 20.1834 17.4114 19.0661 17.5853 17.7658L17.5855 17.7645C17.5922 17.7091 17.5864 17.6529 17.5685 17.6L17.4738 17.6319L17.5685 17.6C17.5507 17.547 17.5213 17.4987 17.4826 17.458L17.4101 17.5269L17.4826 17.458C17.444 17.4174 17.397 17.3854 17.3449 17.3638C17.3062 17.3478 17.2652 17.3378 17.2235 17.3341L17.2208 17.3315L17.18 17.332C17.0834 17.3334 16.9897 17.3678 16.9164 17.4301C16.843 17.4925 16.7947 17.5789 16.782 17.6739L16.8811 17.6872L16.7821 17.6734C16.7186 18.1265 16.4784 18.5617 16.1422 18.8836C15.8058 19.2057 15.3806 19.4077 14.9517 19.4077L10.528 19.4077L10.5275 19.4077C10.4299 19.4082 10.335 19.4424 10.2607 19.505L7.47054 21.8553V19.5017M7.07031 23.1C7.01344 23.1004 6.95704 23.0888 6.90512 23.0659C6.8351 23.0362 6.77481 22.9876 6.73202 22.9253C6.68901 22.8626 6.66567 22.7889 6.66542 22.7131L6.66542 22.7127L6.66542 19.8165C6.10642 19.6769 5.6695 19.4073 5.36965 19.0148C5.0564 18.6048 4.9 18.0702 4.9 17.4324V12.3579C4.9 11.7153 5.15378 11.1806 5.60604 10.8083C6.05637 10.4377 6.69556 10.2344 7.45901 10.2344H11.2545C11.3601 10.2344 11.4624 10.2742 11.5386 10.3467C11.615 10.4193 11.6588 10.5189 11.6588 10.6239C11.6588 10.7289 11.615 10.8285 11.5386 10.9011C11.4624 10.9736 11.3601 11.0135 11.2545 11.0135H7.45901C7.24666 11.0135 6.80199 11.0394 6.41392 11.2236C6.2212 11.315 6.04586 11.4439 5.91861 11.625C5.79199 11.8051 5.70877 12.0428 5.70877 12.3598V17.4324C5.70877 17.9429 5.82845 18.3263 6.05849 18.5991C6.2882 18.8715 6.63943 19.0472 7.13025 19.1196C7.22367 19.1332 7.30986 19.1783 7.37269 19.2481C7.43565 19.318 7.47082 19.4079 7.47054 19.5017M7.07031 23.1C7.0704 23.1 7.07049 23.1 7.07057 23.1L7.06981 23L7.07005 23.1C7.07014 23.1 7.07022 23.1 7.07031 23.1ZM7.47054 19.5017C7.47054 19.5018 7.47054 19.5018 7.47054 19.5019L7.37054 19.5015M7.47054 19.5017V19.5015H7.37054M7.37054 19.5015V21.9395L6.76542 19.7374C5.60917 19.4788 5 18.6757 5 17.4324V12.3579C5 11.1297 5.96591 10.3344 7.45901 10.3344H11.2545C11.3352 10.3344 11.4126 10.3649 11.4697 10.4192C11.5268 10.4735 11.5588 10.5471 11.5588 10.6239C11.5588 10.7007 11.5268 10.7744 11.4697 10.8287C11.4126 10.883 11.3352 10.9135 11.2545 10.9135H7.45901C7.02476 10.9135 5.60877 11.0174 5.60877 12.3598V17.4324C5.60877 18.4834 6.10187 19.0691 7.11567 19.2185C7.18675 19.2288 7.2516 19.263 7.29838 19.315C7.34516 19.3669 7.37077 19.4331 7.37054 19.5015Z" fill="white" stroke="white" stroke-width="0.2"/>
</svg>
