<svg width="30" height="30" viewBox="0 0 30 30" fill="none" xmlns="http://www.w3.org/2000/svg">
<circle cx="15" cy="15" r="15" fill="#43AEB6"/>
<g clip-path="url(#clip0_2607_4420)">
<path d="M24.6001 9.00434H22.183C22.1304 9.00434 22.0785 9.01488 22.0299 9.03535C21.9814 9.05582 21.9373 9.08583 21.9002 9.12366C21.8631 9.16149 21.8336 9.2064 21.8135 9.25582C21.7934 9.30525 21.7831 9.35823 21.7831 9.41172V10.058C21.1171 10.0732 19.6702 10.0361 18.5379 9.50866C16.8437 8.71965 14.2868 8.86854 13.2767 9.81431C13.2025 9.88373 13.1245 9.95883 13.0435 10.0379H8.2169V9.41172C8.2169 9.30368 8.17477 9.20006 8.09979 9.12366C8.0248 9.04726 7.92309 9.00434 7.81704 9.00434H5.39986C5.29381 9.00434 5.19211 9.04726 5.11712 9.12366C5.04213 9.20006 5 9.30368 5 9.41172V17.9537C5 18.0618 5.04213 18.1654 5.11712 18.2418C5.19211 18.3182 5.29381 18.3611 5.39986 18.3611H7.81704C7.89651 18.361 7.97415 18.3368 8.04004 18.2916C8.10592 18.2463 8.15706 18.182 8.1869 18.107L12.8018 22.2878C13.308 22.7463 13.9457 23.0004 14.5779 23.0004C14.6421 23.0004 14.7064 22.9978 14.7703 22.9921C15.312 22.9484 15.6463 22.7323 15.8563 22.4913C16.1456 22.7263 16.5033 22.8568 16.8733 22.8624C17.0056 22.8624 17.1373 22.8448 17.265 22.81C17.4594 22.7596 17.6383 22.6606 17.7854 22.5218C17.9326 22.383 18.0433 22.2089 18.1076 22.0153C18.304 22.1633 18.536 22.2543 18.7791 22.2784C19.0221 22.3026 19.2671 22.2592 19.4878 22.1527C19.7086 22.0462 19.8968 21.8807 20.0325 21.6738C20.1681 21.4669 20.2462 21.2264 20.2582 20.9779C20.5624 20.9696 20.8515 20.841 21.0644 20.6194C21.4625 20.1919 21.7548 19.4143 21.2692 18.6292C21.2611 18.6165 21.2487 18.5986 21.2349 18.5794C21.4287 18.4139 21.5928 18.2074 21.7445 18.0144C21.7574 17.9978 21.7715 17.9804 21.7852 17.9633C21.7875 18.0694 21.8303 18.1703 21.9047 18.2445C21.979 18.3188 22.0789 18.3605 22.183 18.3607H24.6001C24.7062 18.3607 24.8079 18.3177 24.8829 18.2413C24.9579 18.1649 25 18.0613 25 17.9533V9.41216C25.0001 9.35863 24.9898 9.3056 24.9697 9.25613C24.9496 9.20665 24.9202 9.16169 24.883 9.12381C24.8459 9.08594 24.8018 9.05589 24.7533 9.03539C24.7047 9.01489 24.6527 9.00434 24.6001 9.00434ZM7.41718 17.5463H5.80015V9.8178H7.41718V17.5463ZM20.4858 20.0609C20.3688 20.1867 20.1626 20.1841 20.0452 20.1422C19.9829 20.0404 19.9077 19.9475 19.8215 19.8658L16.7126 17.0023C16.6339 16.9298 16.5302 16.8921 16.4243 16.8975C16.3184 16.9029 16.2189 16.951 16.1477 17.0311C16.0766 17.1112 16.0396 17.2169 16.0449 17.3248C16.0502 17.4327 16.0974 17.5341 16.176 17.6066L19.2849 20.4701C19.3934 20.5711 19.4588 20.7113 19.4673 20.8608C19.4757 21.0103 19.4265 21.1573 19.3301 21.2703C19.2338 21.3834 19.0978 21.4536 18.9514 21.466C18.8049 21.4785 18.6594 21.4321 18.5461 21.3368L15.3746 18.6432C15.3343 18.6088 15.2877 18.5828 15.2375 18.5667C15.1873 18.5507 15.1345 18.5448 15.0821 18.5496C15.0297 18.5543 14.9788 18.5695 14.9321 18.5943C14.8855 18.6191 14.8441 18.653 14.8104 18.694C14.7766 18.7351 14.7511 18.7826 14.7353 18.8337C14.7196 18.8848 14.7138 18.9386 14.7185 18.992C14.7231 19.0454 14.738 19.0973 14.7623 19.1448C14.7867 19.1923 14.82 19.2345 14.8603 19.2689L17.3859 21.4145C17.4155 21.921 17.1793 21.9913 17.0585 22.0258C16.812 22.0939 16.5227 22.0149 16.3016 21.8206L13.8081 19.6413C13.7272 19.5785 13.6258 19.5495 13.5246 19.5601C13.4234 19.5708 13.33 19.6203 13.2634 19.6987C13.1969 19.7771 13.1621 19.8783 13.1662 19.9819C13.1704 20.0855 13.2131 20.1835 13.2857 20.2561L15.2443 21.9678C15.15 22.0664 14.9923 22.1559 14.7043 22.18C14.2281 22.2193 13.7276 22.0367 13.3328 21.6787L8.21733 17.0438V10.8553H12.246C11.9031 11.2172 11.5602 11.5888 11.2714 11.9032C10.9845 12.2185 10.8264 12.6334 10.8293 13.0633C10.8323 13.4932 10.996 13.9058 11.2871 14.2171C11.5782 14.5283 11.9748 14.7148 12.3962 14.7384C12.8175 14.7621 13.2319 14.6212 13.5548 14.3445L15.1766 12.9516C17.262 15.2527 20.3778 18.7261 20.5929 19.0645C20.8874 19.5405 20.6152 19.9186 20.4845 20.0588L20.4858 20.0609ZM21.7848 16.8464C21.5277 16.9962 21.3211 17.2542 21.1218 17.5079C21.0025 17.6692 20.8687 17.8188 20.7224 17.955C19.4165 16.4281 16.2467 12.9302 15.5044 12.1141C15.4346 12.037 15.3383 11.9903 15.2355 11.9838C15.1328 11.9772 15.0315 12.0114 14.9529 12.0792L13.0393 13.7209C12.8731 13.8703 12.6567 13.9483 12.4353 13.9385C12.214 13.9288 12.0049 13.8322 11.852 13.6689C11.6991 13.5056 11.6141 13.2883 11.615 13.0625C11.6159 12.8368 11.7026 12.6202 11.8568 12.4582C12.3064 11.9652 12.8918 11.3351 13.3958 10.8286C13.4518 10.8095 13.5028 10.7779 13.5452 10.736C13.5875 10.6942 13.6201 10.6431 13.6406 10.5867C13.7014 10.5273 13.7623 10.4688 13.8188 10.416C14.5123 9.76497 16.7165 9.55625 18.2058 10.2496C19.4791 10.843 21.0387 10.8911 21.7835 10.8745L21.7848 16.8464ZM24.202 17.5481H22.5833V9.81955H24.2003L24.202 17.5481Z" fill="white"/>
</g>
<defs>
<clipPath id="clip0_2607_4420">
<rect width="20" height="14" fill="white" transform="translate(5 9)"/>
</clipPath>
</defs>
</svg>
