<svg width="30" height="30" viewBox="0 0 30 30" fill="none" xmlns="http://www.w3.org/2000/svg">
<circle cx="15" cy="15" r="15" fill="#43AEB6"/>
<path d="M9.87778 20.069V22.7828V20.069ZM9.87778 20.069C9.87778 19.9842 9.84327 19.9033 9.78256 19.8439M9.87778 20.069L9.78256 19.8439M9.78256 19.8439C9.72193 19.7847 9.64016 19.7519 9.5555 19.7519H6.22228C6.04649 19.7519 5.9 19.8917 5.9 20.069V22.7829C5.9 22.8677 5.93451 22.9486 5.99522 23.0079C5.99522 23.0079 5.99522 23.0079 5.99522 23.0079L6.0651 22.9364C6.1068 22.9772 6.16338 23 6.22227 23H9.5555C9.6144 23 9.67098 22.9771 9.71267 22.9364M9.78256 19.8439L9.77778 20.069V22.7828C9.77778 22.8404 9.75437 22.8957 9.71267 22.9364M9.71267 22.9364L9.78256 23.0079C9.78256 23.0079 9.78256 23.0079 9.78256 23.0079L9.71267 22.9364ZM9.23339 22.4657H6.54455V20.3862H9.23339V22.4657Z" fill="white" stroke="white" stroke-width="0.2"/>
<path d="M16.7092 15.4387L16.709 15.4386C16.6486 15.3784 16.5667 15.3445 16.4813 15.3445L13.1481 15.3445C12.9702 15.3445 12.8258 15.4885 12.8258 15.6666V22.7777C12.8258 22.8633 12.8597 22.9452 12.9202 23.0056H12.9202C12.9806 23.0661 13.0627 23.1 13.1481 23.1H16.4813C16.5667 23.1 16.6487 23.0661 16.7092 23.0056C16.7696 22.9452 16.8036 22.8633 16.8036 22.7777V15.6666C16.8036 15.5812 16.7696 15.4992 16.7092 15.4387ZM16.159 22.4556H13.4702V15.9889H16.159V22.4556Z" fill="white" stroke="white" stroke-width="0.2"/>
<path d="M23.0053 9.14185L23.0053 9.14185C23.0658 9.20192 23.0999 9.28345 23.0999 9.36875V22.7792C23.0999 22.8644 23.0659 22.9461 23.0053 23.0063C22.9448 23.0664 22.8629 23.1 22.7777 23.1H19.4444C19.3593 23.1 19.2773 23.0664 19.2168 23.0063M23.0053 9.14185L19.2168 23.0063M23.0053 9.14185C22.9448 9.08174 22.8629 9.04813 22.7777 9.04813H19.4444C19.2671 9.04813 19.1222 9.19106 19.1222 9.36875V22.7792C19.1222 22.8644 19.1563 22.9461 19.2168 23.0063M23.0053 9.14185L19.2168 23.0063M22.4554 22.4586H19.7666L19.7667 9.68955H22.4555L22.4554 22.4586Z" fill="white" stroke="white" stroke-width="0.2"/>
<path d="M7.25734 19.2245C7.26523 19.2323 7.27349 19.2397 7.28207 19.2467M7.25734 19.2245C7.25708 19.2242 7.25682 19.224 7.25656 19.2237L7.32724 19.153L7.25812 19.2253C7.25786 19.225 7.2576 19.2248 7.25734 19.2245ZM7.25734 19.2245C7.12633 19.0984 7.12659 18.8932 7.25812 18.7674L7.25985 18.7657L7.25987 18.7658L20.6648 6.54451H19.7547C19.5752 6.54451 19.421 6.40486 19.421 6.22219C19.421 6.03964 19.5752 5.90003 19.7547 5.90003H21.5273H21.5281V6.00003C21.5555 5.99956 21.5825 6.00483 21.6074 6.01553L7.28207 19.2467M7.28207 19.2467L7.17426 19.3238L7.4886 19.3222C7.57288 19.3218 7.65456 19.2906 7.71664 19.2338L7.28207 19.2467ZM7.71679 19.2337L21.1733 6.96662V7.88694C21.1733 8.06961 21.3275 8.20926 21.507 8.20926C21.6866 8.20926 21.8408 8.06961 21.8408 7.88694V6.22002H21.8408L21.8407 6.21819C21.8402 6.18615 21.8346 6.15442 21.8243 6.12403V6.1222V6.09771L21.813 6.076C21.8003 6.05162 21.7839 6.02884 21.7639 6.0087L7.71679 19.2337Z" fill="white" stroke="white" stroke-width="0.2"/>
</svg>
