<svg width="30" height="30" viewBox="0 0 30 30" fill="none" xmlns="http://www.w3.org/2000/svg">
<circle cx="15" cy="15" r="15" fill="#43AEB6"/>
<g clip-path="url(#clip0_2607_4422)">
<path d="M15 3C14.94 2.99994 14.8806 3.01224 14.8251 3.0362C14.7696 3.06015 14.7192 3.09529 14.6767 3.1396C14.6342 3.18391 14.6005 3.23652 14.5776 3.29444C14.5546 3.35236 14.5427 3.41443 14.5427 3.47713V6.34245C14.5427 6.46911 14.5909 6.59057 14.6767 6.68013C14.7624 6.76969 14.8788 6.82 15 6.82C15.1213 6.82 15.2376 6.76969 15.3234 6.68013C15.4092 6.59057 15.4573 6.46911 15.4573 6.34245V3.47713C15.4572 3.35055 15.409 3.22919 15.3233 3.13972C15.2375 3.05026 15.1213 3 15 3ZM8.3691 5.8649C8.30915 5.86519 8.24984 5.87788 8.19462 5.90225C8.13939 5.92663 8.08934 5.96219 8.04736 6.00688C7.96158 6.09713 7.91345 6.21913 7.91345 6.34629C7.91345 6.47344 7.96158 6.59544 8.04736 6.68569L9.99132 8.70805C10.0773 8.79368 10.1919 8.8408 10.3106 8.83935C10.4294 8.83789 10.5429 8.78797 10.6269 8.70026C10.7109 8.61254 10.7587 8.494 10.7601 8.36996C10.7615 8.24592 10.7164 8.12623 10.6344 8.03649L8.69779 6.00688C8.6108 5.91689 8.49359 5.86594 8.37114 5.8649H8.3691ZM21.631 5.8649C21.5078 5.86538 21.3898 5.91637 21.3023 6.00688L19.3657 8.03649C19.2837 8.12623 19.2386 8.24592 19.24 8.36996C19.2413 8.494 19.2891 8.61254 19.3731 8.70026C19.4571 8.78797 19.5707 8.83789 19.6894 8.83935C19.8082 8.8408 19.9228 8.79368 20.0088 8.70805L21.9523 6.68569C22.0382 6.5955 22.0864 6.47348 22.0864 6.34629C22.0864 6.2191 22.0382 6.09708 21.9523 6.00688C21.9104 5.96216 21.8605 5.92658 21.8053 5.9022C21.7501 5.87783 21.6909 5.86515 21.631 5.8649ZM10.0554 9.87933L7.08293 14.1773C7.02436 14.2663 6.99542 14.373 7.00059 14.4808C7.00575 14.5887 7.04473 14.6918 7.11151 14.7743L14.6571 23.8478C14.8281 24.0503 15.1719 24.0503 15.343 23.8478L22.8886 14.7743C22.9554 14.6918 22.9943 14.5887 22.9995 14.4808C23.0047 14.373 22.9757 14.2663 22.9172 14.1773L19.9447 9.87933C19.9014 9.81913 19.8453 9.77027 19.7808 9.7366C19.7163 9.70293 19.6452 9.68538 19.5731 9.68533H10.427C10.3547 9.68435 10.2832 9.70146 10.2185 9.73521C10.1538 9.76895 10.0977 9.81837 10.055 9.87933H10.0554ZM11.0762 10.6404H14.0936L12.0786 13.4972L11.0762 10.6404ZM15.9065 10.6404H18.9219L17.9215 13.4972L15.9065 10.6404ZM14.9992 10.9764L17.1281 13.9837H12.8777L14.9992 10.9764ZM10.2906 11.1628L11.2763 13.9833H8.34052L10.2906 11.1628ZM19.7083 11.1628L21.6587 13.9833H18.7226L19.7083 11.1628ZM8.45526 14.9388H11.6062L13.8784 21.4626L8.45526 14.9388ZM12.5792 14.9388H17.4299L15 21.8996L12.5792 14.9388ZM18.3955 14.9388H21.5465L16.1233 21.4626L18.3955 14.9388Z" fill="white"/>
</g>
<defs>
<clipPath id="clip0_2607_4422">
<rect width="16" height="21" fill="white" transform="translate(7 3)"/>
</clipPath>
</defs>
</svg>
