<?xml version="1.0" encoding="utf-8"?>
<!-- Generator: Adobe Illustrator 26.0.1, SVG Export Plug-In . SVG Version: 6.00 Build 0)  -->
<svg version="1.1" id="Слой_1" xmlns="http://www.w3.org/2000/svg" xmlns:xlink="http://www.w3.org/1999/xlink" x="0px" y="0px"
	 viewBox="0 0 30 30" style="enable-background:new 0 0 30 30;" xml:space="preserve">
<style type="text/css">
	.st0{fill:#43AEB6;}
	.st1{fill:#FFFFFF;stroke:#FFFFFF;stroke-width:0.2;}
	.st2{fill:#FFFFFF;}
</style>
<circle class="st0" cx="15.1" cy="15" r="15"/>
<path class="st1" d="M16.8,14.2L16.8,14.2c-0.1-0.1-0.1-0.1-0.2-0.1h-3.3c-0.2,0-0.3,0.1-0.3,0.3v7.1c0,0.1,0,0.2,0.1,0.2l0,0
	c0.1,0.1,0.1,0.1,0.2,0.1h3.3c0.1,0,0.2,0,0.2-0.1c0.1-0.1,0.1-0.1,0.1-0.2v-7.1C16.9,14.4,16.9,14.3,16.8,14.2z M16.3,21.3h-2.7
	v-6.5h2.7V21.3z"/>
<path class="st2" d="M8.4,15.9c-0.1,0-0.3-0.1-0.3-0.2c-0.1-0.2-0.1-0.4,0.1-0.6l12.7-8.6c0.2-0.1,0.4-0.1,0.6,0.1
	c0.1,0.2,0.1,0.4-0.1,0.6L8.6,15.8C8.6,15.9,8.5,15.9,8.4,15.9z"/>
<path class="st2" d="M20.8,9C20.8,9,20.7,9,20.8,9c-0.3-0.1-0.4-0.3-0.4-0.5l0.3-1.3l-1.4-0.3c-0.2,0-0.4-0.3-0.3-0.5
	c0-0.2,0.3-0.4,0.5-0.3l1.8,0.4c0.1,0,0.2,0.1,0.3,0.2c0.1,0.1,0.1,0.2,0.1,0.3l-0.4,1.7C21.1,8.9,21,9,20.8,9z"/>
<path class="st2" d="M10.2,22H6.9c-0.2,0-0.4-0.2-0.4-0.4v-3.3c0-0.2,0.2-0.4,0.4-0.4h3.3c0.2,0,0.4,0.2,0.4,0.4v3.3
	C10.6,21.8,10.4,22,10.2,22z M7.3,21.2h2.5v-2.5H7.3V21.2z"/>
<path class="st2" d="M23.2,22h-3.3c-0.2,0-0.4-0.2-0.4-0.4V11.1c0-0.2,0.2-0.4,0.4-0.4h3.3c0.2,0,0.4,0.2,0.4,0.4v10.5
	C23.6,21.8,23.4,22,23.2,22z M20.3,21.2h2.5v-9.7h-2.5V21.2z"/>
</svg>
