<?xml version="1.0" encoding="utf-8"?>
<!-- Generator: Adobe Illustrator 26.0.1, SVG Export Plug-In . SVG Version: 6.00 Build 0)  -->
<svg version="1.1" xmlns="http://www.w3.org/2000/svg" xmlns:xlink="http://www.w3.org/1999/xlink" x="0px" y="0px"
	 viewBox="0 0 30 30" style="enable-background:new 0 0 30 30;" xml:space="preserve">
<style type="text/css">
	.st0{fill:#43AEB6;}
	.st1{fill:#FFFFFF;stroke:#FFFFFF;stroke-width:0.2;}
	.st2{fill:#FFFFFF;}
</style>
<g id="Слой_2">
</g>
<g id="Слой_1">
	<circle class="st0" cx="15" cy="15" r="15"/>
	<path class="st1" d="M25.2,10.6c0-0.1,0-0.2-0.1-0.3c-0.1-0.1-0.2-0.1-0.3-0.1c-0.1,0-0.2,0-0.3,0.1c-0.1,0.1-0.1,0.2-0.1,0.3v0.1
		c0,0.1,0,0.2,0.1,0.3c0.1,0.1,0.2,0.1,0.3,0.1c0.1,0,0.2,0,0.3-0.1C25.2,10.9,25.2,10.8,25.2,10.6L25.2,10.6z"/>
	<path class="st1" d="M7.1,23.1c0.1,0,0.2,0,0.3-0.1l0,0l3.3-2.8H15c1.3,0,2.5-1.1,2.6-2.4l0,0c0-0.1,0-0.1,0-0.2l-0.1,0l0.1,0
		c0-0.1,0-0.1-0.1-0.1l-0.1,0.1l0.1-0.1c0,0-0.1-0.1-0.1-0.1c0,0-0.1,0-0.1,0l0,0l0,0c-0.1,0-0.2,0-0.3,0.1
		c-0.1,0.1-0.1,0.1-0.1,0.2l0.1,0l-0.1,0c-0.1,0.5-0.3,0.9-0.6,1.2c-0.3,0.3-0.8,0.5-1.2,0.5h-4.4h0c-0.1,0-0.2,0-0.3,0.1l-2.8,2.4
		v-2.4 M7.1,23.1c-0.1,0-0.1,0-0.2,0c-0.1,0-0.1-0.1-0.2-0.1c0-0.1-0.1-0.1-0.1-0.2v0v-2.9c-0.6-0.1-1-0.4-1.3-0.8
		c-0.3-0.4-0.5-0.9-0.5-1.6v-5.1c0-0.6,0.3-1.2,0.7-1.5c0.5-0.4,1.1-0.6,1.9-0.6h3.8c0.1,0,0.2,0,0.3,0.1c0.1,0.1,0.1,0.2,0.1,0.3
		c0,0.1,0,0.2-0.1,0.3C11.5,11,11.4,11,11.3,11H7.5c-0.2,0-0.7,0-1,0.2c-0.2,0.1-0.4,0.2-0.5,0.4c-0.1,0.2-0.2,0.4-0.2,0.7v5.1
		c0,0.5,0.1,0.9,0.3,1.2c0.2,0.3,0.6,0.4,1.1,0.5c0.1,0,0.2,0.1,0.2,0.1c0.1,0.1,0.1,0.2,0.1,0.3 M7.1,23.1
		C7.1,23.1,7.1,23.1,7.1,23.1l0-0.1L7.1,23.1C7.1,23.1,7.1,23.1,7.1,23.1z M7.5,19.5C7.5,19.5,7.5,19.5,7.5,19.5L7.5,19.5 M7.5,19.5
		L7.5,19.5L7.5,19.5 M7.4,19.5v2.4l-0.6-2.2C5.6,19.5,5,18.7,5,17.4v-5.1c0-1.2,1-2,2.5-2h3.8c0.1,0,0.2,0,0.2,0.1s0.1,0.1,0.1,0.2
		c0,0.1,0,0.2-0.1,0.2s-0.1,0.1-0.2,0.1H7.5c-0.4,0-1.9,0.1-1.9,1.4v5.1c0,1.1,0.5,1.6,1.5,1.8c0.1,0,0.1,0,0.2,0.1
		C7.3,19.4,7.4,19.4,7.4,19.5z"/>
	<path class="st2" d="M23.2,19.8c-0.1,0-0.2,0-0.3-0.1L20.2,17h-4.6c-1.2,0-2.1-0.3-2.7-0.9c-0.7-0.8-0.7-1.7-0.7-1.7V9.6
		c0-2,1.7-2.7,2.5-2.8l8.1,0c0.7,0,1.2,0.2,1.6,0.6c0.7,0.7,0.6,1.9,0.6,1.9c0,0.2-0.2,0.4-0.4,0.4c-0.2,0-0.4-0.2-0.4-0.4
		c0,0,0-0.8-0.4-1.3c-0.2-0.2-0.6-0.4-1-0.4h-8.1c0,0-1.8,0.2-1.8,2v4.7c0,0,0,0.6,0.5,1.1c0.4,0.4,1.1,0.7,2.1,0.7h4.7
		c0.1,0,0.2,0,0.3,0.1l2,2.1v-1.8c0-0.2,0.1-0.3,0.3-0.4c0.1,0,1.3-0.4,1.3-1.8v-2.2c0-0.2,0.2-0.4,0.4-0.4s0.4,0.2,0.4,0.4v2.2
		c0,1.4-1,2.2-1.6,2.5v2.5c0,0.2-0.1,0.3-0.2,0.4C23.3,19.8,23.2,19.8,23.2,19.8z"/>
</g>
</svg>
